<svg viewBox="0 0 299.15 312.3" xmlns="http://www.w3.org/2000/svg">
  <defs>
    <style>
      .cls-1 {
        fill: none;
      }

      .cls-2 {
        fill: #231f20;
      }
    </style>
  </defs>
  <g data-name="Layer 1" id="Layer_1">
    <path d="M49.52,115.4l-5.52,24.02-4.25-.98-17.86-21.9-3.85,16.73-4.8-1.1,5.44-23.68,4.25.98,17.87,21.85,3.91-17.03,4.8,1.1Z" class="cls-2"></path>
    <path d="M84.23,67.57l-3.5,3.47-27.46-5.41,16.34,16.45-3.84,3.81-22.27-22.42,4.12-4.09,26.09,5.28-15.6-15.7,3.84-3.81,22.27,22.42Z" class="cls-2"></path>
    <path d="M91.53,26.87l2.42,4.29-13.8,7.78,3.89,6.9,11.61-6.55,2.42,4.29-11.62,6.55,4.36,7.74,13.8-7.78,2.42,4.29-18.63,10.5-15.51-27.52,18.63-10.5Z" class="cls-2"></path>
    <path d="M225.09,79.39l25.02-19.29,12.87,16.69-3.9,3.01-9.48-12.3-6.79,5.24,7.95,10.31-3.9,3.01-7.95-10.31-10.42,8.03-3.39-4.39Z" class="cls-2"></path>
    <path d="M239.6,99.2l28.8-12.97,8.65,19.22-4.49,2.02-6.38-14.16-7.82,3.52,5.35,11.87-4.49,2.02-5.35-11.87-12,5.4-2.28-5.05Z" class="cls-2"></path>
    <path d="M284.14,136.97l-4.84.91-2.91-15.57-7.79,1.46,2.45,13.11-4.84.91-2.45-13.11-8.74,1.63,2.91,15.57-4.84.91-3.93-21.02,31.06-5.81,3.93,21.02Z" class="cls-2"></path>
    <path d="M283.49,169.82l-4.92-.28.91-15.82-7.91-.46-.77,13.31-4.92-.28.77-13.31-8.87-.51-.91,15.82-4.92-.28,1.23-21.35,31.54,1.82-1.23,21.35Z" class="cls-2"></path>
    <path d="M230.11,216.3l4.1-4.36,5.71,21.02,9.49,8.92-3.86,4.1-9.49-8.92-21.36-4.39,4.19-4.45,15.38,3.23-4.17-15.16Z" class="cls-2"></path>
    <path d="M211.57,271.25l-18.98-17.45,11.72,21.42-4.59,2.51-15.16-27.72,6.79-3.72,18.76,17.32-4.47-25.14,6.64-3.63,15.16,27.72-4.59,2.51-11.72-21.42,4.46,25.39-4.02,2.2Z" class="cls-2"></path>
    <path d="M180.18,250.9l.97,4.83-15.53,3.12,1.56,7.77,13.07-2.63.97,4.83-13.07,2.63,1.75,8.71,15.53-3.12.97,4.83-20.97,4.21-6.23-30.97,20.97-4.21Z" class="cls-2"></path>
    <path d="M129.46,254.2l10.54.66c9.79.61,15.47,7.13,14.87,16.75-.6,9.62-7.04,15.39-16.83,14.78l-10.54-.66,1.96-31.53ZM138.33,281.55c6.5.4,10.59-3.66,11-10.29.42-6.68-3.14-11.17-9.68-11.58l-5.01-.31-1.36,21.87,5.05.31Z" class="cls-2"></path>
    <path d="M117.79,250.64l1.14,33.77-5.37-1.83-.26-7.71-12.91-4.4-4.87,5.97-5.29-1.8,21.52-26.05,6.04,2.06ZM103.72,266.4l9.41,3.21-.49-14.11-8.92,10.91Z" class="cls-2"></path>
    <path d="M75.98,260.52c3.06,2.07,6.54,1.71,9.41-.81l3.37,4.45c-4.66,3.6-10.27,4.05-15.56.48-6.97-4.7-8.29-13.67-2.93-21.62,5.37-7.95,14.18-10.07,21.14-5.37,5.29,3.57,6.97,8.95,5.37,14.61l-5.39-1.46c1.27-3.61.3-6.97-2.77-9.03-4.3-2.9-9.88-1.25-13.69,4.4-3.82,5.65-3.26,11.44,1.04,14.35Z" class="cls-2"></path>
    <path d="M72.89,222.87l-15.51,30.01-3.79-4.22,3.55-6.85-9.11-10.15-7.16,2.82-3.73-4.16,31.5-12.2,4.26,4.75ZM52.92,229.74l6.64,7.4,6.47-12.55-13.11,5.15Z" class="cls-2"></path>
    <path d="M28.22,140.86c-8.99.15-16.16,7.57-16,16.56.15,8.99,7.57,16.16,16.56,16,8.99-.15,16.16-7.57,16-16.56-.15-8.99-7.57-16.16-16.56-16ZM28.69,168.14h0c-6.07.1-11.07-4.73-11.18-10.8-.1-6.07,4.73-11.07,10.8-11.17,6.07-.1,11.07,4.73,11.18,10.8.1,6.07-4.73,11.07-10.8,11.18Z" class="cls-2"></path>
  </g>
  <g data-name="Isolation Mode" id="Isolation_Mode">
    <path d="M41.79,77.62c-8.98.5-15.85,8.18-15.36,17.16.5,8.98,8.18,15.85,17.16,15.36,8.98-.5,15.85-8.18,15.36-17.16s-8.18-15.85-17.16-15.36ZM43.3,104.85h0c-6.06.33-11.25-4.31-11.58-10.37-.34-6.06,4.3-11.25,10.37-11.58,6.06-.34,11.25,4.3,11.58,10.37s-4.3,11.25-10.37,11.58Z" class="cls-2"></path>
    <path d="M225.99,39.38c-8.47-3.01-17.78,1.42-20.79,9.9-3.01,8.47,1.42,17.78,9.9,20.79,8.47,3.01,17.78-1.42,20.79-9.9,3.01-8.47-1.42-17.78-9.9-20.79ZM216.87,65.08h0c-5.72-2.03-8.71-8.32-6.68-14.04,2.03-5.72,8.31-8.71,14.03-6.68,5.72,2.03,8.71,8.31,6.68,14.04-2.03,5.72-8.31,8.71-14.04,6.68Z" class="cls-2"></path>
    <path d="M184.6,47.86c-5.69-2.09-8.61-8.39-6.52-14.07s8.39-8.61,14.07-6.52c3.88,1.42,6.47,4.81,7.06,8.63l5.34.12c-.58-6.03-4.52-11.49-10.59-13.71-8.43-3.09-17.76,1.24-20.85,9.66-3.09,8.43,1.24,17.76,9.66,20.85,6.06,2.22,12.6.61,16.94-3.62l-4.15-3.36c-2.92,2.53-7.09,3.44-10.97,2.02Z" class="cls-2"></path>
    <circle r="104.34" cy="150.67" cx="148.49" class="cls-1"></circle>
  </g>
</svg>