<svg width="1390" height="125" xmlns="http://www.w3.org/2000/svg"><g clip-path="url(#clip0_5963_491)" fill="#fff"><path d="M915.233.02c-33.69 0-60.991 27.756-60.991 62.01s27.301 62.01 60.991 62.01c33.691 0 60.992-27.757 60.992-62.01 0-34.254-27.321-62.01-60.992-62.01zm0 105.063c-23.397 0-42.366-19.285-42.366-43.074 0-23.788 18.969-43.074 42.366-43.074 23.398 0 42.367 19.286 42.367 43.074 0 23.789-18.969 43.074-42.367 43.074zm82.872 16.572h20.585V71.981h48.35V53.394h-48.35V20.991h57.66V2.404h-78.245v119.251zm103.235 0h20.59V71.981h48.35V53.394h-48.35V20.991h57.67V2.404h-78.26v119.251zm103.26 0h79.37v-18.607h-58.81V69.493h49.51V50.886h-49.51V20.99h58.81V2.404h-79.37v119.251zM779.135 18.956c2.144 0 4.227.205 6.289.534 11.81 1.789 22.043 8.512 28.555 18.073a43.658 43.658 0 012.366 3.865l17.816-6.188C825.445 16.797 808.033 3.433 787.325.595a59.774 59.774 0 00-8.19-.575c-33.67 0-60.971 27.756-60.971 62.01s27.301 62.01 60.991 62.01c2.771 0 5.501-.206 8.17-.576 20.708-2.816 38.12-16.201 46.836-34.644l-17.816-6.189c-.708 1.337-1.517 2.612-2.366 3.866-6.512 9.56-16.724 16.263-28.534 18.072-2.063.309-4.146.535-6.31.535-23.397 0-42.366-19.286-42.366-43.074 0-23.789 18.969-43.074 42.366-43.074zm531.475 102.699H1390v-18.607h-58.81V69.493h49.51V50.886h-49.51V20.99H1390V2.404h-79.39v119.251zm-1074.672.533H135.432v-16.819l72.821-84.73h-72.134V1.87h99.172v16.818l-72.64 84.729h73.307v18.772h-.02zm263.055 0h-18.887l-60.001-88.307v88.307h-20.728V1.868h22.245l56.643 84.298V1.868h20.728v120.32zM60.991.02C27.301.02 0 27.776 0 62.03s27.3 62.01 60.991 62.01 60.992-27.757 60.992-62.01c0-34.254-27.321-62.01-60.992-62.01zm0 105.063c-23.397 0-42.366-19.285-42.366-43.074 0-23.788 18.969-43.053 42.366-43.053 23.398 0 42.367 19.285 42.367 43.074 0 23.788-18.97 43.074-42.367 43.074v-.021zM314.423.02c-33.691 0-60.991 27.756-60.991 62.01s27.3 62.01 60.991 62.01 60.991-27.757 60.991-62.01c0-34.254-27.3-62.01-60.991-62.01zm0 105.063c-23.398 0-42.366-19.285-42.366-43.074 0-23.788 18.968-43.074 42.366-43.074s42.366 19.286 42.366 43.074c0 23.789-18.968 43.074-42.366 43.074zm212.03 17.147h79.394v-18.772H547.04V69.575h49.505V50.783H547.04V20.6h58.807V1.808h-79.394V122.23z"/></g><defs><clipPath id="clip0_5963_491"><path fill="#fff" transform="translate(0 .02)" d="M0 0h1390v124H0z"/></clipPath></defs></svg>